# xmcd
#
# Track frame offsets:
#	150
#	11962
#	23477
#	38495
#	53125
#	64045
#	77492
#	92492
#	101602
#	114305
#	128660
#	149027
#	162677
#	174135
#	190537
#	207425
#	217175
#	229107
#	242682
#	258667
#	269935
#	284100
#	301520
#	314912
#
# Disc length: 4385 seconds
#
# Revision: 0
# Processed by: cddbd v1.5.2PL0 Copyright (c) Steve Scherf et al.
# Submitted via: dBpowerAMP V4.0
#
DISCID=5e111f18
DTITLE=Os Filhos de Goiás - Dose Dupla
DYEAR=1900
DGENRE=Sertanejo (Br)
TTITLE0=Gaiola de aço
TTITLE1=Não brigues comigo
TTITLE2=Suadade de boiadeiro
TTITLE3=Flor paraguaia
TTITLE4=O feitiço contra o feiticeiro
TTITLE5=Garota manhosa
TTITLE6=A volta de Jesus
TTITLE7=Flor sertaneja
TTITLE8=Sonhei com ela
TTITLE9=Boidadeiro valente
TTITLE10=Triste destino
TTITLE11=Amor proibido
TTITLE12=Viva o meu Brasil
TTITLE13=Morrendo de dor
TTITLE14=Amor distante
TTITLE15=Chorei, chorei
TTITLE16=Minha doce namorada
TTITLE17=Gaiola de pedra
TTITLE18=Atravessando fronteiras
TTITLE19=O cabeludo
TTITLE20=Amor doido
TTITLE21=O pobre esquecido
TTITLE22=Meu último adeus
TTITLE23=Alma ferida
EXTD=
EXTT0=
EXTT1=
EXTT2=
EXTT3=
EXTT4=
EXTT5=
EXTT6=
EXTT7=
EXTT8=
EXTT9=
EXTT10=
EXTT11=
EXTT12=
EXTT13=
EXTT14=
EXTT15=
EXTT16=
EXTT17=
EXTT18=
EXTT19=
EXTT20=
EXTT21=
EXTT22=
EXTT23=
PLAYORDER=
